PathFileType	4	(X/Y/Z)	..\data\2014030\dynamic\2014030_C5_02.trc
DataRate	CameraRate	NumFrames	NumMarkers	Units	OrigDataRate	OrigDataStartFrame	OrigNumFrames
100.000000	100.000000	4	52	mm	100.000000	135	155
Frame#	Time	L_IAS			L_IPS			R_IPS			R_IAS			L_FTC			L_FLE			L_FME			L_FAX			L_TTC			L_FAL			L_TAM			L_FCC			L_FM1			L_FM2			L_FM5			R_FTC			R_FLE			R_FME			R_FAX			R_TTC			R_FAL			R_TAM			R_FCC			R_FM1			R_FM2			R_FM5			CV7			TV10			SXS			SJN			L_SIA			L_SRS			L_SAA			L_SAE			L_HLE			L_HME			L_UOA			L_RSP			L_UHE			L_HM2			L_HM5			R_SIA			R_SRS			R_SAA			R_SAE			R_HLE			R_HME			R_UOA			R_RSP			R_UHE			R_HM2			R_HM5			
		X1	Y1	Z1	X2	Y2	Z2	X3	Y3	Z3	X4	Y4	Z4	X5	Y5	Z5	X6	Y6	Z6	X7	Y7	Z7	X8	Y8	Z8	X9	Y9	Z9	X10	Y10	Z10	X11	Y11	Z11	X12	Y12	Z12	X13	Y13	Z13	X14	Y14	Z14	X15	Y15	Z15	X16	Y16	Z16	X17	Y17	Z17	X18	Y18	Z18	X19	Y19	Z19	X20	Y20	Z20	X21	Y21	Z21	X22	Y22	Z22	X23	Y23	Z23	X24	Y24	Z24	X25	Y25	Z25	X26	Y26	Z26	X27	Y27	Z27	X28	Y28	Z28	X29	Y29	Z29	X30	Y30	Z30	X31	Y31	Z31	X32	Y32	Z32	X33	Y33	Z33	X34	Y34	Z34	X35	Y35	Z35	X36	Y36	Z36	X37	Y37	Z37	X38	Y38	Z38	X39	Y39	Z39	X40	Y40	Z40	X41	Y41	Z41	X42	Y42	Z42	X43	Y43	Z43	X44	Y44	Z44	X45	Y45	Z45	X46	Y46	Z46	X47	Y47	Z47	X48	Y48	Z48	X49	Y49	Z49	X50	Y50	Z50	X51	Y51	Z51	X52	Y52	Z52	

136	1.35	1565.237426757813	927.925964355469	-389.8098449707032	1363.181762695313	976.8881835937502	-315.5346374511719	1371.466186523438	982.2031860351565	-199.7649536132813	1573.521362304688	934.2385864257815	-135.278793334961	1498.129028320313	859.5944824218752	-440.8286437988282	1639.7138671875	490.2360229492189	-399.6524658203126	1660.874389648438	493.7185363769532	-281.4343872070313	1632.302856445313	430.2739868164064	-401.979705810547	1692.0859375	430.5694580078126	-347.2237548828126	1570.181274414063	99.16052246093753	-389.5072021484376	1588.891479492188	110.0991134643555	-299.8776550292969	1520.705932617188	57.59511184692384	-347.0888061523438	1704.17529296875	42.7295265197754	-309.3807373046876	1707.918579101563	52.39267349243165	-364.9583129882813	1673.799194335938	31.02893066406251	-408.2950744628907	1484.243896484375	856.0842895507815	-81.17663574218751	1445.937744140625	460.9541015625001	-167.3884735107422	1435.294067382813	471.618133544922	-290.3289489746094	1425.685180664063	402.387420654297	-170.8748931884766	1474.80712890625	395.030731201172	-234.6138305664063	1335.647338867188	76.57474517822267	-212.6566925048829	1344.128173828125	90.71058654785158	-304.7115783691407	1278.397583007813	28.93924522399903	-255.5157470703126	1459.182495117188	15.83825111389161	-300.2398071289063	1472.520263671875	34.38868713378907	-241.2869873046876	1427.846435546875	15.35215282440186	-184.4564819335938	1450.904174804688	1432.259765625	-257.8022155761719	1376.840087890625	1205.971557617188	-275.9115600585938	1615.3798828125	1122.016235351563	-279.7352600097657	1584.935546875	1340.2568359375	-273.2615661621094	1369.397338867188	1239.295288085938	-367.7164001464844	1409.126342773438	1370.86279296875	-373.4806823730469	1457.969116210938	1373.60498046875	-440.0865783691407	1513.78076171875	1380.76220703125	-458.1635742187501	1432.417846679688	1079.268310546875	-538.3341674804689	1374.555908203125	1089.866577148438	-490.2257080078126	1387.795043945313	1063.501708984375	-526.1173095703126	1440.51171875	840.246032714844	-460.3114013671876	1431.024047851563	846.3565063476565	-533.1820068359376	1431.584350585938	753.0366210937501	-449.1327514648439	1404.148559570313	780.199157714844	-546.1943969726564	1374.902587890625	1229.387573242188	-182.1500244140625	1418.948364257813	1350.710205078125	-156.6091461181641	1462.9638671875	1350.5673828125	-103.1548004150391	1517.398315429688	1353.391479492188	-84.47154235839845	1531.863403320313	1036.29248046875	-2.426764965057373	1487.62060546875	1013.049255371094	-70.39275360107423	1500.47021484375	997.6948852539065	-25.64293861389161	1668.136596679688	838.5991210937502	-66.39688873291017	1629.271118164063	819.8890380859377	0.6483677625656129	1728.2802734375	775.2110595703127	-63.45028305053712	1661.33154296875	757.7870483398439	10.47127723693848	
137	1.36	1579.354614257813	926.3634033203127	-389.9490661621095	1376.38134765625	975.3262939453127	-316.9196166992188	1384.090576171875	980.5893554687502	-201.1417846679688	1585.705444335938	932.0913696289065	-135.2409210205078	1512.447509765625	858.314880371094	-441.5077209472657	1653.407470703125	488.285125732422	-398.9694213867189	1672.50537109375	491.663055419922	-280.4934997558594	1649.056274414063	427.8167724609376	-401.050750732422	1708.52294921875	431.1530761718751	-345.7698059082032	1609.737915039063	93.39697265625001	-388.1079101562501	1627.3740234375	105.6515502929688	-298.4011840820313	1563.447631835938	48.62010574340822	-345.7395019531251	1746.95654296875	46.6670036315918	-306.8940124511719	1750.346801757813	56.20149230957033	-362.5014648437501	1718.094116210938	32.22785568237305	-405.8545227050782	1495.734741210938	854.5828247070315	-81.67932128906251	1452.0595703125	460.1679077148439	-168.0283966064453	1442.202758789063	471.2093811035157	-290.8811035156251	1431.137451171875	401.8492126464845	-171.5665740966797	1480.100463867188	393.8451232910157	-235.2555236816407	1336.279907226563	77.3347854614258	-213.5103607177735	1345.157470703125	91.3230667114258	-305.5468444824219	1278.74560546875	30.30559158325196	-256.6402587890626	1459.58642578125	15.6455659866333	-300.5138549804688	1472.6279296875	34.33244705200196	-241.4217224121094	1427.682373046875	15.6679973602295	-184.8322448730469	1463.651733398438	1430.86865234375	-257.9126586914063	1389.789184570313	1204.609741210938	-276.3934631347657	1628.49169921875	1120.69970703125	-280.1219482421876	1597.853149414063	1339.067626953125	-273.4783935546876	1382.484252929688	1237.759155273438	-367.7693176269532	1422.099609375	1369.430541992188	-373.5948181152344	1470.76123046875	1372.418090820313	-440.2461853027345	1526.494262695313	1379.57177734375	-458.4721069335939	1441.389404296875	1078.8681640625	-537.5717773437501	1383.84130859375	1090.550659179688	-489.5753173828126	1396.617553710938	1063.953491210938	-525.4227294921876	1443.101318359375	839.5845336914065	-458.8341369628907	1435.683471679688	845.9980468750002	-532.0717773437501	1430.7255859375	752.7742919921876	-447.3722229003907	1406.875854492188	780.4340820312502	-545.3175659179689	1387.943725585938	1227.90966796875	-182.3804931640625	1431.920654296875	1349.276611328125	-156.6897277832032	1476.113891601563	1349.059326171875	-103.2020645141602	1530.5810546875	1352.0244140625	-84.7809524536133	1550.451171875	1035.26220703125	-2.75297498703003	1506.117309570313	1011.138000488281	-70.53872680664064	1519.557739257813	995.9399414062502	-25.97512435913087	1691.543701171875	841.643493652344	-68.61932373046876	1653.443725585938	821.4178466796877	-1.49709963798523	1753.34130859375	779.9798583984377	-66.18611907958986	1687.220092773438	760.2160644531251	7.817693233489992	
138	1.37	1593.54833984375	924.664733886719	-390.1835021972657	1389.763305664063	973.5825805664065	-318.3090820312501	1396.840576171875	978.8289184570315	-202.5689849853516	1597.998657226563	929.9346923828127	-135.2423248291016	1526.65234375	856.8372192382815	-442.1410217285157	1666.536743164063	485.956512451172	-398.2783813476564	1683.302734375	489.0836486816407	-279.5137634277344	1665.230346679688	425.1569824218751	-400.0804443359376	1724.252075195313	431.5075073242189	-344.2923889160157	1648.679321289063	88.77738189697267	-386.5558166503907	1665.10009765625	102.3016357421875	-296.8255615234376	1605.673461914063	40.96230697631837	-344.2135620117188	1788.400512695313	51.7312469482422	-304.0433044433594	1791.610595703125	61.06205368041994	-359.6786193847657	1761.431030273438	34.57728576660157	-403.0816345214845	1507.198974609375	853.036071777344	-82.18485260009767	1458.505126953125	459.3889160156251	-168.7206420898438	1449.474975585938	470.8636169433595	-291.4976806640626	1436.912475585938	401.3211669921876	-172.3140563964844	1485.6796875	392.6690063476564	-235.9537963867188	1336.987670898438	78.19143676757814	-214.3640289306641	1346.204833984375	92.02918243408205	-306.3661499023438	1279.09619140625	31.8133888244629	-257.7687683105469	1460.066284179688	15.43000221252442	-300.7550048828126	1472.822875976563	34.28218841552735	-241.5090026855469	1427.587036132813	15.99541473388672	-185.1998138427735	1476.440063476563	1429.363891601563	-258.0905761718751	1402.790771484375	1203.144165039063	-276.9270019531251	1641.6845703125	1119.302368164063	-280.5582275390626	1610.838500976563	1337.752685546875	-273.7290039062501	1395.644165039063	1236.099853515625	-367.8621826171876	1435.130615234375	1367.884033203125	-373.7759399414063	1483.60546875	1371.141235351563	-440.4907226562501	1539.270141601563	1378.288452148438	-458.835418701172	1450.4462890625	1078.429077148438	-536.8973999023439	1393.331298828125	1091.091186523438	-488.8696289062501	1405.571533203125	1064.28271484375	-524.7097778320314	1446.471313476563	839.0119628906252	-457.568572998047	1440.720825195313	845.6509399414065	-531.0944213867189	1430.9677734375	752.6923828125001	-445.8734741210939	1410.079223632813	780.6962890625002	-544.4537963867189	1401.02880859375	1226.327514648438	-182.680648803711	1444.9375	1347.724975585938	-156.8337860107422	1489.289306640625	1347.4580078125	-103.3461227416992	1543.791381835938	1350.562744140625	-85.15093231201173	1568.81005859375	1034.236450195313	-3.16379475593567	1524.423461914063	1009.239440917969	-70.76834106445314	1538.443969726563	994.2044067382815	-26.39133071899415	1714.46337890625	844.7077636718752	-70.88414001464845	1677.232177734375	823.0487060546877	-3.674063920974732	1777.839111328125	784.8096923828127	-68.9901580810547	1712.69921875	762.8042602539064	5.147061347961427	
139	1.38	1607.846313476563	922.8697509765627	-390.5001220703126	1403.368896484375	971.6737060546877	-319.7301330566407	1409.763305664063	976.9499511718752	-204.0666656494141	1610.441162109375	927.842956542969	-135.28173828125	1540.7900390625	855.1724243164065	-442.727752685547	1679.2470703125	483.3582763671876	-397.5591125488282	1693.505493164063	486.1260986328126	-278.4749755859376	1680.900024414063	422.3868713378907	-399.0625000000001	1739.378295898438	431.6692810058595	-342.7889404296876	1686.534057617188	85.2769241333008	-384.8876953125001	1701.64306640625	99.99206542968753	-295.1836853027344	1646.819458007813	34.63752365112305	-342.5604248046876	1828.075439453125	57.6689910888672	-300.9368591308594	1831.263671875	66.73803710937501	-356.5960388183594	1803.277709960938	37.88921356201173	-400.0675659179689	1518.688232421875	851.4871215820315	-82.69514465332033	1465.297485351563	458.6412353515626	-169.4522247314453	1457.107299804688	470.5769348144532	-292.1725769042969	1443.025024414063	400.8215637207032	-173.0980987548828	1491.5673828125	391.5038452148439	-236.6927185058594	1337.778198242188	79.16970825195314	-215.1748199462891	1347.270751953125	92.85515594482423	-307.1268615722657	1279.4384765625	33.49318313598634	-258.8424682617188	1460.613525390625	15.18811511993409	-300.9440612792969	1473.123657226563	34.23850250244141	-241.5372314453126	1427.585327148438	16.31027221679688	-185.5377655029297	1489.292602539063	1427.767700195313	-258.3400573730469	1415.86474609375	1201.594116210938	-277.5125122070313	1654.972290039063	1117.853393554688	-281.0516357421876	1623.90283203125	1336.341918945313	-274.0252685546876	1408.888549804688	1234.3427734375	-367.9995422363282	1448.226806640625	1366.249145507813	-374.0325927734376	1496.51318359375	1369.79541015625	-440.8277282714845	1552.122314453125	1376.934204101563	-459.2583312988282	1459.649780273438	1077.959838867188	-536.3259277343751	1403.043701171875	1091.501708984375	-488.1423950195314	1414.707153320313	1064.503173828125	-524.0050659179689	1450.704223632813	838.5122070312502	-456.5342407226564	1446.178466796875	845.3114013671877	-530.2740478515626	1432.414672851563	752.7413940429689	-444.6285705566407	1413.803588867188	780.971862792969	-543.6148071289064	1414.17626953125	1224.666748046875	-183.0523834228516	1458.010620117188	1346.08447265625	-157.0508728027344	1502.504150390625	1345.794799804688	-103.589828491211	1557.036743164063	1349.035034179688	-85.58647918701173	1586.891479492188	1033.233032226563	-3.659122943878175	1542.513427734375	1007.370300292969	-71.08743286132814	1557.098999023438	992.5027465820315	-26.894193649292	1736.854370117188	847.7803344726565	-73.16320037841798	1700.57470703125	824.7679443359377	-5.867847919464112	1801.73583984375	789.698669433594	-71.82566070556642	1737.7099609375	765.5322265625001	2.4714515209198	
